Coordinates
version=1
nRows=13
nColumns=36
inDegrees=yes

Units are S.I. units (second, meters, Newtons, ...)
If the header above contains a line with 'inDegrees', this indicates whether rotational values are in degrees (yes) or radians (no).

endheader
time	pelvis_tilt	pelvis_list	pelvis_rotation	pelvis_tx	pelvis_ty	pelvis_tz	hip_flexion_r	hip_adduction_r	hip_rotation_r	knee_angle_r	knee_angle_r_beta	ankle_angle_r	subtalar_angle_r	mtp_angle_r	hip_flexion_l	hip_adduction_l	hip_rotation_l	knee_angle_l	knee_angle_l_beta	ankle_angle_l	subtalar_angle_l	mtp_angle_l	lumbar_extension	lumbar_bending	lumbar_rotation	arm_flex_r	arm_add_r	arm_rot_r	elbow_flex_r	pro_sup_r	arm_flex_l	arm_add_l	arm_rot_l	elbow_flex_l	pro_sup_l
      0.00000000	     -0.26242101	      0.62494138	      3.25020837	     -0.09041825	      0.95361079	      0.11594546	      3.27058889	     -5.58249315	     -3.51749484	     14.73678615	      0.25720544	      3.70480235	     -9.91437900	     -5.25406699	     -4.27782395	     -6.26980108	    -10.74894693	      0.33773556	      0.00589460	      6.08178680	     -3.01964038	     -5.25406699	     -9.60110708	     -0.14186065	     -5.72550521	     -6.92443423	    -16.49670363	     25.60646168	     52.34535092	     75.31152847	     -9.77033526	    -16.25621067	     25.52256126	     42.58618201	     65.95848001
      0.01666670	     -4.19215915	     -0.09446512	      2.56045159	     -0.08905003	      0.94319139	      0.11311171	      7.74756054	     -5.68392768	     -4.70510912	     14.98527794	      0.26154244	      7.49624206	     -4.37331060	     -5.91862807	      0.01266751	     -6.60381766	    -12.37304721	      0.39577426	      0.00690756	      6.96649344	     -0.40869995	     -5.91862807	     -3.57817656	      0.33309210	     -4.91116882	     -7.98363788	    -18.10694455	     28.35010066	     53.29420589	     75.46244942	    -10.62595216	    -15.19327168	     26.98220401	     40.75565823	     67.11163516
      0.03333330	     -4.66683474	      0.02963325	      1.91951835	     -0.08843208	      0.94354243	      0.11199346	      8.31235608	     -5.94106759	     -5.36496352	     15.03791000	      0.26246104	      8.09499139	     -3.93438280	     -6.32423259	      0.67461847	     -6.49595629	    -12.85408732	      0.42554043	      0.00742708	      6.10054097	     -1.64454726	     -6.32423259	     -2.63238551	     -0.09026126	     -4.55493859	     -7.90763378	    -17.99402426	     28.32504693	     52.80005275	     73.58529856	    -10.82570291	    -15.20833338	     26.96645614	     40.37827123	     66.38894895
      0.05000000	     -4.96784736	      0.06030011	      1.55467972	     -0.09041002	      0.94370325	      0.11019531	      8.94297094	     -6.11547263	     -6.06428256	     15.21934407	      0.26562766	      9.35738789	     -2.55580967	     -6.35618713	      0.89825270	     -6.46957262	    -13.89307628	      0.36923419	      0.00644435	      7.34748730	     -0.43436594	     -6.35618713	     -1.81988615	     -0.20843823	     -3.95604499	     -7.61291968	    -17.66292164	     28.37751931	     51.27360802	     73.83416222	    -10.01366837	    -14.83565791	     27.23944679	     38.34185191	     66.96704515
      0.06666670	     -5.14974833	      0.11182640	      1.53616818	     -0.09405381	      0.94619295	      0.10764383	      9.26879489	     -6.34514454	     -6.56822628	     15.13973225	      0.26423818	      9.46823044	     -1.64712673	     -6.56758532	      1.28643388	     -6.31399855	    -13.79534432	      0.36177269	      0.00631412	      7.69919464	     -0.44380465	     -6.56758532	     -1.54037027	     -0.22305948	     -3.68083202	     -7.09134407	    -17.18525549	     28.24052727	     49.85502494	     73.12423618	     -8.84170306	    -14.19832818	     27.44961522	     36.29882361	     67.20118985
      0.08333330	     -5.29081175	      0.21868604	      1.68456063	     -0.09674392	      0.94821938	      0.10536843	      9.44538878	     -6.59599099	     -6.79889894	     14.81160521	      0.25851128	      9.84660456	     -0.58346926	     -6.72515125	      1.69941292	     -6.03395344	    -13.49957657	      0.37715935	      0.00658267	      7.90284216	     -0.65682207	     -6.72515125	     -1.37546133	     -0.35966227	     -3.38660757	     -6.18146885	    -16.69878109	     28.53122313	     47.88853299	     72.52273040	     -7.42372755	    -13.53560999	     27.62653931	     33.99263307	     67.26507146
      0.10000000	     -5.28596152	      0.29330198	      1.91011033	     -0.09765813	      0.94791993	      0.10238247	      9.36924957	     -6.90506186	     -7.13445489	     14.55697796	      0.25406719	      9.61056473	     -0.03400549	     -6.84443710	      1.89553145	     -5.75371226	    -13.30153852	      0.41072021	      0.00716842	      7.74042472	     -0.81259906	     -6.84443710	     -1.44924946	     -0.46059377	     -3.14671244	     -5.20985289	    -16.20881346	     29.36202199	     45.67185751	     72.90329167	     -6.10890093	    -12.99300265	     28.11070486	     32.11517852	     67.98663072
      0.11666670	     -5.18639361	      0.36373532	      2.08438105	     -0.09690612	      0.94781293	      0.09843094	      9.05340002	     -7.20521332	     -7.40867244	     14.22736325	      0.24831433	      9.50556427	      0.49477373	     -6.87483026	      1.78894479	     -5.45047511	    -13.05445299	      0.46636227	      0.00813956	      7.89046523	     -0.85447643	     -6.87483026	     -1.48677167	     -0.52630617	     -2.86493799	     -4.28540183	    -15.52311415	     29.82189696	     43.08984284	     72.98045284	     -5.14627363	    -12.32547660	     27.80009238	     30.38607481	     67.91916554
      0.13333330	     -4.97544838	      0.39722210	      2.18998368	     -0.09684214	      0.94968028	      0.09594592	      8.52312318	     -7.42777703	     -7.65448998	     13.66315413	      0.23846703	      9.05824046	      0.67175459	     -6.89669790	      1.54323141	     -5.21745435	    -12.95557430	      0.50999274	      0.00890105	      7.89121298	     -0.93460710	     -6.89669790	     -1.65880170	     -0.56042132	     -2.54656487	     -3.30098398	    -14.80853716	     30.47330060	     40.52558775	     72.94838028	     -4.43090753	    -11.82983711	     27.54265488	     29.10762310	     67.76803815
      0.15000000	     -4.85456037	      0.45722540	      2.18316504	     -0.09775264	      0.94874255	      0.09321455	      8.11100555	     -7.65500342	     -7.87948412	     13.11968081	      0.22898163	      8.53352892	      0.80885640	     -6.91050871	      1.38783290	     -4.95312369	    -12.76271633	      0.60488260	      0.01055719	      8.04019057	     -1.10561136	     -6.91050871	     -1.77146512	     -0.62310923	     -1.93940411	     -2.66472829	    -14.23385318	     31.04066458	     38.39016187	     72.87978029	     -4.07474834	    -11.53315593	     27.22528500	     28.45971826	     67.61309498
      0.16666670	     -4.76889799	      0.61876213	      2.18952179	     -0.10035947	      0.95023780	      0.08987684	      7.83167150	     -8.02120275	     -8.02374698	     12.66281527	      0.22100782	      8.05010180	      0.93325263	     -7.35140809	      1.41771876	     -4.55106093	    -12.40734424	      0.70398504	      0.01228686	      8.27223545	     -1.24214769	     -7.35140809	     -1.82287206	     -0.85897635	     -2.31733426	     -0.80933801	    -13.70649198	     35.22852857	     35.46794101	     67.64804586	     -4.38153138	    -11.46401102	     26.89755956	     28.08394811	     64.50626660
      0.18333330	     -4.63930616	      0.79664846	      2.19682326	     -0.10512225	      0.94780347	      0.08669604	      7.64568578	     -8.35753814	     -7.97888817	     12.05846332	      0.21045989	      7.78626168	      0.94488698	     -7.45078481	      1.54605177	     -4.13088543	    -12.11946671	      0.92539189	      0.01615114	      8.48441352	     -1.56876760	     -7.45078481	     -2.17758482	     -1.08781801	     -1.99054228	      0.14422908	    -13.19831020	     36.74793334	     33.73611589	     66.21498345	     -4.49909856	    -11.61846344	     26.42606870	     28.26036816	     64.12163521
      0.20000000	     -4.47522259	      0.87141272	      2.17467104	     -0.10828473	      0.94337208	      0.08377650	      7.53859183	     -8.61054609	     -7.90930973	     11.79278060	      0.20582285	      7.80776348	      0.97702935	     -7.45235195	      1.77951932	     -3.88101851	    -11.68420902	      1.45296476	      0.02535902	      8.98395887	     -1.95540127	     -7.45235195	     -2.63079726	     -1.18885425	     -1.30903654	      0.74647969	    -12.84960954	     36.87430092	     32.77904878	     66.50420903	     -4.46488128	    -11.93762184	     26.19210471	     28.64313071	     64.38103666
